<?xml version="1.0" encoding="utf-8"?>
<!-- Generator: Adobe Illustrator 27.5.0, SVG Export Plug-In . SVG Version: 6.00 Build 0)  -->
<svg version="1.1" xmlns="http://www.w3.org/2000/svg" xmlns:xlink="http://www.w3.org/1999/xlink" x="0px" y="0px"
	 viewBox="0 0 500 500" style="enable-background:new 0 0 500 500;" xml:space="preserve">
 <g id="BACKGROUND">
    <linearGradient id="SVGID_1_" gradientUnits="userSpaceOnUse" x1="249.5956" y1="77.72" x2="251.0955" y2="716.6879">
      <stop offset="0" style="stop-color:rgb(244, 63, 94);"/>
      <stop offset="0.7175" style="stop-color:rgb(244, 63, 94);"/>
      <stop offset="0.8775" style="stop-color:rgb(244, 63, 94);"/>
    </linearGradient>
    <rect style="fill:url(#SVGID_1_);" width="500" height="500"/>
  </g>
<g id="OBJECTS">
	<rect x="2788.334" y="2195.304" style="fill:none;" width="1122.112" height="609.061"/>
	
		<linearGradient id="SVGID_00000127028941504143441910000005076720755609247108_" gradientUnits="userSpaceOnUse" x1="24.3333" y1="418.6223" x2="475.6667" y2="418.6223">
		<stop  offset="0" style="stop-color:#5A5AD4"/>
		<stop  offset="0.7175" style="stop-color:#3A3A8A"/>
		<stop  offset="0.8775" style="stop-color:#2F2F70"/>
	</linearGradient>
	
		<ellipse style="opacity:0.2;fill:url(#SVGID_00000127028941504143441910000005076720755609247108_);" cx="250" cy="418.622" rx="225.667" ry="32.488"/>
	<g>
		<rect x="155.656" y="165.063" style="fill:#EE2E6C;" width="196.613" height="241.492"/>
		<rect x="170.729" y="181.979" style="fill:#EE2E6C;" width="166.466" height="207.661"/>
		<rect x="172.721" y="184.395" style="fill:#FEFEFE;" width="162.462" height="202.666"/>
		<g>
			<rect x="191.639" y="270.227" style="fill:#EDEDED;" width="18.936" height="18.936"/>
			<rect x="220.655" y="274.673" style="fill:#E4E5E0;" width="98.106" height="2.002"/>
			<rect x="220.655" y="282.714" style="fill:#E4E5E0;" width="98.106" height="2.002"/>
			<path style="fill:#BDBAC7;" d="M200.033,285.422c-0.318,0-0.625-0.135-0.852-0.377l-4.285-4.583c-0.47-0.503-0.47-1.319,0-1.822
				c0.471-0.503,1.233-0.503,1.703,0l3.319,3.55l5.595-7.722c0.408-0.563,1.164-0.664,1.69-0.229
				c0.526,0.436,0.622,1.245,0.214,1.808l-6.432,8.878c-0.212,0.293-0.531,0.473-0.876,0.497
				C200.084,285.421,200.058,285.422,200.033,285.422z"/>
		</g>
		<g>
			<rect x="192.202" y="299.993" style="fill:#EDEDED;" width="18.936" height="18.936"/>
			<rect x="221.219" y="304.439" style="fill:#E4E5E0;" width="98.106" height="2.002"/>
			<rect x="221.219" y="312.48" style="fill:#E4E5E0;" width="98.106" height="2.002"/>
			<path style="fill:#BDBAC7;" d="M200.596,315.188c-0.318,0-0.625-0.135-0.852-0.377l-4.285-4.583c-0.47-0.503-0.47-1.319,0-1.822
				c0.47-0.503,1.233-0.503,1.703,0l3.319,3.55l5.595-7.722c0.408-0.563,1.164-0.664,1.69-0.229
				c0.526,0.436,0.622,1.245,0.214,1.807l-6.432,8.878c-0.212,0.292-0.531,0.473-0.876,0.497
				C200.647,315.187,200.622,315.188,200.596,315.188z"/>
		</g>
		<g>
			
				<text transform="matrix(1 0 0 1 223.2397 228.6714)" style="fill:#7EE6CC; font-family:'BebasNeue'; font-size:9.4388px; letter-spacing:2;">Work team</text>
		</g>
		<rect x="197.319" y="236.108" style="fill:none;" width="124.026" height="24.855"/>
		<text transform="matrix(1 0 0 1 205.3715 240.1777)"><tspan x="0" y="0" style="fill:#939393; font-family:'Rubik-Light'; font-size:5.7325px;">Lorem ipsum dolor sit amet, consectetuer </tspan><tspan x="22.428" y="7.895" style="fill:#939393; font-family:'Rubik-Light'; font-size:5.7325px;">adipiscing elit, sed diam.</tspan></text>
		<path style="fill:none;stroke:#358AC1;stroke-width:0.429;stroke-miterlimit:10;stroke-dasharray:0.8581;" d="M321.346,275.066"/>
		<path style="fill:none;stroke:#358AC1;stroke-width:0.429;stroke-miterlimit:10;stroke-dasharray:0.8581;" d="M223.24,275.066"/>
		
			<line style="fill:none;stroke:#BDBAC7;stroke-width:0.25;stroke-miterlimit:10;" x1="194.223" y1="256.227" x2="321.346" y2="256.227"/>
		
			<rect x="191.639" y="330.838" style="fill:none;stroke:#7EE6CC;stroke-width:0.5;stroke-miterlimit:10;" width="60.373" height="18.118"/>
		
			<rect x="257.784" y="330.838" style="fill:none;stroke:#7EE6CC;stroke-width:0.5;stroke-miterlimit:10;" width="60.374" height="18.118"/>
		<g>
			
				<text transform="matrix(1 0 0 1 201.8776 342.5805)" style="fill:#E4E5E0; font-family:'BebasNeue'; font-size:8px; letter-spacing:2;">previous</text>
		</g>
		
			<text transform="matrix(1 0 0 1 277.4873 342.5809)" style="fill:#E4E5E0; font-family:'BebasNeue'; font-size:8px; letter-spacing:2;">NEXT</text>
	</g>
	<g>
		<path style="fill:#2E364C;" d="M293.265,56.057c0,0,3.773,2.517,2.253,7.329c-1.52,4.812-4.428,6.922,0.361,9.033
			c4.789,2.111,8.081,11.461,1.919,15.101s-15.871,1.276-17.475-5.984c-1.604-7.26,7.043-25.316,7.278-25.574
			C287.836,55.703,293.265,56.057,293.265,56.057z"/>
		<circle style="fill:#C44F35;" cx="292.13" cy="62.115" r="3.187"/>
		<path style="fill:#2E364C;" d="M279.848,53.499c0,0-0.487,2.05-2.512,2.313c-4.896,0.634-8.352,4.737-7.396,9.931
			c0.956,5.194,6.399,7.396,5.111,10.18c-1.288,2.784-2.036,8.601,2.618,9.349c4.654,0.748,8.317-1.361,8.542-7.682
			c0.225-6.321-3.182-24.705-3.182-24.705L279.848,53.499z"/>
		<path style="fill:#F6A60C;" d="M302.424,91.557c-1.28-0.74-2.767-1.167-4.363-1.167h-2.125h-19.502h-2.125
			c-1.596,0-3.083,0.427-4.363,1.167c-9.191,3.434-9.74,12.861-9.093,23.927l7.927,25.297c0.253,0.668,0.893,1.11,1.608,1.11h1.007
			h29.58h1.007c0.715,0,1.355-0.442,1.608-1.11l5.452-24.64C312.803,106.216,311.615,94.991,302.424,91.557z"/>
		<path style="fill:#F47A5E;" d="M282.927,73.412L282.927,73.412c-5.247,0-9.541-4.293-9.541-9.541v-1.877
			c0-5.247,4.293-9.541,9.541-9.541l0,0c5.247,0,9.541,4.293,9.541,9.541v1.877C292.467,69.119,288.174,73.412,282.927,73.412z"/>
		<path style="fill:#2E364C;" d="M278.389,59.944c0,0.411-0.333,0.744-0.744,0.744s-0.744-0.333-0.744-0.744
			c0-0.411,0.333-0.744,0.744-0.744S278.389,59.534,278.389,59.944z"/>
		<path style="fill:#2E364C;" d="M284.796,58.643c0,0.411-0.333,0.744-0.744,0.744c-0.411,0-0.744-0.333-0.744-0.744
			c0-0.411,0.333-0.744,0.744-0.744C284.463,57.899,284.796,58.232,284.796,58.643z"/>
		<polygon style="fill:#F47A5E;" points="286.996,71.86 292.967,92.037 287.765,97.066 280.555,92.037 281.025,73.007 		"/>
		<path style="fill:#E65D3E;" d="M286.996,71.86c0,0-1.311,1.545-5.971,1.147l7.273,3.252L286.996,71.86z"/>
		<polygon style="fill:#C44F35;" points="281.103,58.643 282.211,63.901 280.579,63.384 		"/>
		<path style="fill:#1C212E;" d="M303.169,141.891c0,0,13.078,4.447,12.975,24.576h-60.1c0,0-2.07-12.068,13.796-24.576H303.169z"/>
		<g>
			<g>
				<g>
					<path style="fill:#2E364C;" d="M325.947,164.288l-46.97,77.669l-5.971-3.567l30.335-84.845
						c2.668-7.463,11.49-10.628,18.294-6.563l0,0C327.621,150.558,329.556,158.322,325.947,164.288z"/>
					<polyline style="fill:#2E364C;" points="325.947,164.288 278.977,241.957 273.007,238.391 303.341,153.546 					"/>
				</g>
				<g>
					<polygon style="fill:#D44322;" points="278.987,241.322 280.466,252.158 265.855,243.989 272.87,237.902 					"/>
					
						<rect x="264.091" y="247.891" transform="matrix(0.8728 0.488 -0.488 0.8728 156.312 -101.2558)" style="fill:#6B2211;" width="16.739" height="2.871"/>
					<polyline style="fill:#D44322;" points="265.855,243.989 272.87,237.902 278.987,241.322 280.466,252.158 265.855,243.989 
											"/>
					<polyline style="fill:#141821;" points="265.855,243.989 280.466,252.158 279.065,254.664 264.455,246.495 					"/>
					<path style="fill:#2E364C;" d="M321.635,146.982c5.986,3.576,7.921,11.34,4.312,17.306l-46.97,77.669"/>
					<line style="fill:#364B5E;" x1="325.947" y1="164.288" x2="278.977" y2="241.957"/>
					<polyline style="fill:#46B6C4;" points="265.855,243.989 272.87,237.902 278.987,241.322 280.466,252.158 265.855,243.989 
											"/>
					<line style="fill:#2E364C;" x1="279.065" y1="254.664" x2="264.455" y2="246.495"/>
				</g>
			</g>
			<g>
				<path style="fill:#2E364C;" d="M245.772,166.467l46.97,77.669l5.971-3.567l-30.335-84.845
					c-2.668-7.463-11.49-10.628-18.294-6.563l0,0C244.098,152.737,242.163,160.501,245.772,166.467z"/>
				<polygon style="fill:#D44322;" points="292.732,243.501 291.253,254.337 305.863,246.168 298.849,240.081 				"/>
				
					<rect x="290.889" y="250.07" transform="matrix(-0.8728 0.488 -0.488 -0.8728 683.1981 324.9971)" style="fill:#6B2211;" width="16.739" height="2.871"/>
				<polyline style="fill:#2E364C;" points="245.772,166.467 292.742,244.136 298.712,240.57 268.378,155.725 				"/>
				<polyline style="fill:#D44322;" points="305.863,246.168 298.849,240.081 292.732,243.501 291.253,254.337 305.863,246.168 				
					"/>
				<polyline style="fill:#141821;" points="305.863,246.168 291.253,254.337 292.654,256.843 307.264,248.674 				"/>
				<path style="fill:#2E364C;" d="M250.084,149.161c-5.986,3.576-7.921,11.34-4.312,17.306l46.97,77.669"/>
				<line style="fill:#364B5E;" x1="245.772" y1="166.467" x2="292.742" y2="244.136"/>
				<polyline style="fill:#46B6C4;" points="305.863,246.168 298.849,240.081 292.732,243.501 291.253,254.337 305.863,246.168 				
					"/>
				<line style="fill:#2E364C;" x1="292.654" y1="256.843" x2="307.264" y2="248.674"/>
			</g>
		</g>
		<path style="fill:#FEBE2C;" d="M270.661,89.833L270.661,89.833c3.823,0.693,6.36,4.354,5.667,8.176l-4.286,23.652
			c-0.693,3.823-4.354,6.36-8.177,5.667l0,0c-3.823-0.693-6.36-4.354-5.667-8.176l4.286-23.652
			C263.178,91.678,266.839,89.14,270.661,89.833z"/>
		<path style="fill:#FEBE2C;" d="M302.161,90.739L302.161,90.739c3.848-0.534,7.401,2.154,7.934,6.002l3.301,23.809
			c0.534,3.848-2.154,7.401-6.002,7.934l0,0c-3.848,0.534-7.401-2.154-7.934-6.002l-3.301-23.809
			C295.626,94.825,298.313,91.272,302.161,90.739z"/>
		<g>
			<path style="fill:#FEFEFC;" d="M321.081,153.546h-64.966c-2.735,0-4.953-2.217-4.953-4.953v-34.699
				c0-2.735,2.217-4.953,4.953-4.953h64.966c2.735,0,4.953,2.217,4.953,4.953v34.699
				C326.033,151.328,323.816,153.546,321.081,153.546z"/>
			<path style="fill:#EE2E6C;" d="M289.245,127.532h-1.294c-0.672,0-1.293,0.359-1.629,0.941l-0.647,1.121
				c-0.336,0.582-0.336,1.299,0,1.881l0.647,1.121c0.336,0.582,0.957,0.941,1.629,0.941h1.294c0.672,0,1.293-0.359,1.629-0.941
				l0.647-1.121c0.336-0.582,0.336-1.299,0-1.881l-0.647-1.121C290.538,127.891,289.917,127.532,289.245,127.532z"/>
		</g>
		<path style="fill:#2E364C;" d="M282.927,52.454c0,0-2.191-1.63-4.927-1.597c-1.917,0.024-4.101,0.864-5.988,3.653
			c-4.58,6.77-0.863,8.074-1.659,11.438C270.353,65.948,281.363,55.11,282.927,52.454z"/>
		<path style="fill:#2E364C;" d="M295.76,59.944c0,0-10.293,2.332-13.569-6.164C278.915,45.284,296.011,48.187,295.76,59.944z"/>
		<path style="fill:none;stroke:#1C212E;stroke-width:0.2724;stroke-miterlimit:10;" d="M281.395,66.504c0,0,0.831,1.271,2.102,0"/>
	</g>
	<g>
		<g>
			<g>
				<ellipse style="fill:#2E364C;" cx="105.213" cy="297.702" rx="15.98" ry="14.758"/>
				<g>
					<path style="fill:#44B2BF;" d="M184.048,428.176L184.048,428.176c-1.995,5.023-7.616,7.559-12.702,5.73l-49.614-18.167
						c-7.281-2.618-10.947-10.745-8.091-17.935v0c3.062-7.71,12.223-10.945,19.448-6.869l46.57,24.815
						C184.023,418.212,185.897,423.519,184.048,428.176z"/>
					<g>
						<path style="fill:#3A98A3;" d="M173.956,414.708c5.338-0.525,10.131,3.277,10.834,8.595l0,0
							c0.809,6.116-4.087,11.486-10.251,11.243l-50.521-1.984l0.261-12.969L173.956,414.708z"/>
						<polygon style="fill:#23313D;" points="124.018,432.562 110.626,432.036 110.85,420.913 124.28,419.592 						"/>
						<g>
							<path style="fill:#2E364C;" d="M102.305,410.544c0.047,0,0.092-0.005,0.139-0.004c2.568,0.052,4.626,2.195,4.574,4.762
								l-0.299,14.837l-4.807-0.097L102.305,410.544z"/>
							
								<rect x="104.882" y="424.32" transform="matrix(0.0201 -0.9998 0.9998 0.0201 -319.6267 526.4529)" style="fill:#F47A5E;" width="7.775" height="3.944"/>
							
								<rect x="90.977" y="418.884" transform="matrix(0.0201 -0.9998 0.9998 0.0201 -321.4744 512.505)" style="fill:#141821;" width="19.509" height="2.755"/>
						</g>
					</g>
					<path style="fill:#46B6C4;" d="M86.421,398.191c2.997,11.276,13.275,19.586,25.495,19.586s22.498-8.31,25.495-19.586H86.421z"
						/>
					<path style="fill:#44B2BF;" d="M43.712,426.044L43.712,426.044c-2.277-4.902-0.255-10.727,4.569-13.165l38.772-19.587
						c6.906-3.489,15.329-0.565,18.588,6.452l0,0c3.494,7.524-0.453,16.401-8.38,18.847l-41.508,12.807
						C50.966,432.875,45.823,430.588,43.712,426.044z"/>
					<path style="fill:#F47A5E;" d="M109.601,295.461L109.601,295.461c-1.884,0-4.042,0.747-5.769,1.958v13.22
						c1.727,1.211,3.885,1.958,5.769,1.958l0,0c4.152-1.355,7.08-3.186,7.08-7.08v-2.976
						C116.68,298.647,113.494,295.461,109.601,295.461z"/>
					<path style="fill:#F47A5E;" d="M101.35,330.002h8.251v-34.542h-4.261c-2.597,0-3.821,2.264-3.99,4.703V330.002z"/>
					<polygon style="fill:#F47A5E;" points="111.566,312.072 114.786,330.002 109.105,330.002 109.105,312.266 					"/>
					<polygon style="fill:#FEFEFC;" points="139.441,393.148 84.392,393.148 84.392,329.276 139.441,329.318 					"/>
					<rect x="84.392" y="392.76" style="fill:#2E364C;" width="55.05" height="6.527"/>
					<path style="fill:#F47A5E;" d="M114.624,329.057H101.35l6.716,13.902c0.382,0.791,1.53,0.722,1.815-0.108L114.624,329.057z"/>
					<path style="fill:#EDEDED;" d="M85.462,386.608L85.462,386.608c-5.837,0-10.613-4.776-10.613-10.613V339.67
						c0-5.837,4.776-10.612,10.612-10.612h0c5.837,0,10.612,4.776,10.612,10.612v36.326
						C96.074,381.832,91.299,386.608,85.462,386.608z"/>
					<path style="fill:#EDEDED;" d="M83.42,365.491c-8.201,1.869-10.947,12.167-4.766,17.872h0
						c4.027,3.716,10.24,3.692,14.237-0.056l8.649-8.108v-13.838L83.42,365.491z"/>
					<polygon style="fill:#2E364C;" points="107.09,360.096 101.54,361.361 101.54,375.2 107.09,369.997 					"/>
					<path style="fill:#F47A5E;" d="M107.349,368.356h-0.259v-7.587h0.259c2.095,0,3.793,1.698,3.793,3.793l0,0
						C111.142,366.658,109.444,368.356,107.349,368.356z"/>
					<path style="fill:#F47A5E;" d="M112.846,362.624h-4.829c-0.512,0-0.927-0.415-0.927-0.927l0,0c0-0.512,0.415-0.928,0.927-0.928
						h4.829c0.512,0,0.928,0.415,0.928,0.928l0,0C113.774,362.209,113.359,362.624,112.846,362.624z"/>
					<path style="fill:#EDEDED;" d="M183.127,355.062L183.127,355.062c-1.912,5.515-7.988,8.463-13.503,6.552l-34.322-11.896
						c-5.515-1.911-8.463-7.988-6.552-13.503l0,0c1.911-5.515,7.988-8.463,13.503-6.552l34.322,11.896
						C182.091,343.47,185.039,349.547,183.127,355.062z"/>
					<path style="fill:#EDEDED;" d="M165.858,344.522c-4.228,7.272,1.429,16.305,9.817,15.677l0,0
						c5.464-0.409,9.685-4.969,9.671-10.448l-0.028-11.856l-10.118-9.44L165.858,344.522z"/>
					<polygon style="fill:#2E364C;" points="178.06,323.534 175.199,328.454 185.318,337.895 185.299,330.289 					"/>
					<path style="fill:#F47A5E;" d="M184.276,328.979l-0.177,0.19l-5.547-5.175l0.177-0.19c1.429-1.532,3.829-1.615,5.361-0.186l0,0
						C185.622,325.047,185.705,327.447,184.276,328.979z"/>
					<path style="fill:#F47A5E;" d="M183.835,321.049l-3.294,3.531c-0.35,0.375-0.936,0.395-1.311,0.045l0,0
						c-0.375-0.349-0.395-0.936-0.046-1.311l3.294-3.531c0.349-0.375,0.936-0.395,1.311-0.046l0,0
						C184.164,320.088,184.185,320.675,183.835,321.049z"/>
					<circle style="fill:#2E1E24;" cx="105.841" cy="300.542" r="0.628"/>
					<circle style="fill:#2E1E24;" cx="110.884" cy="300.542" r="0.628"/>
					<polyline style="fill:#D44322;" points="108.732,298.436 110.256,304.887 108.711,304.853 108.732,298.436 					"/>
					
						<path style="fill:none;stroke:#2E1E24;stroke-width:0.1878;stroke-linecap:round;stroke-linejoin:round;stroke-miterlimit:10;" d="
						M106.4,305.963c0,0,2.404,1.947,5.409,0"/>
					<path style="fill:#D44322;" d="M101.458,301.552c-0.036-0.001-0.071-0.005-0.108-0.005c-1.371,0-2.482,1.111-2.482,2.482
						c0,1.371,1.111,2.482,2.482,2.482c0.036,0,0.072-0.004,0.108-0.005V301.552z"/>
					<polygon style="fill:#D44322;" points="111.566,312.072 103.832,312.266 112.669,317.714 					"/>
					<path style="fill:#2E364C;" d="M102.426,296.909c0,0,1.359,3.276-0.969,4.643l-1.613,0.504l0.318-4.785L102.426,296.909z"/>
					<path style="fill:#2E1E24;" d="M104.79,298.217c0,0,1.07-1.019,2.219-0.588v0.588
						C107.01,298.217,106.005,297.904,104.79,298.217z"/>
					<path style="fill:#2E1E24;" d="M111.946,298.021c0,0-0.731-0.879-2.102-0.498l0.196,0.694
						C110.04,298.217,111.227,297.59,111.946,298.021z"/>
					<g>
						<path style="fill:#3A98A3;" d="M54.06,412.59c-5.353-0.335-10.008,3.634-10.523,8.973v0
							c-0.592,6.141,4.491,11.333,10.643,10.873l50.419-3.773l-0.721-12.952L54.06,412.59z"/>
						<polygon style="fill:#23313D;" points="104.599,428.663 117.964,427.663 117.346,416.555 103.878,415.711 						"/>
						<path style="fill:#2E364C;" d="M125.518,405.89c-0.047,0.001-0.092-0.002-0.139,0.001c-2.564,0.143-4.545,2.357-4.403,4.921
							l0.825,14.817l4.8-0.267L125.518,405.89z"/>
						
							<rect x="115.729" y="419.885" transform="matrix(-0.0556 -0.9985 0.9985 -0.0556 -294.943 564.7271)" style="fill:#F47A5E;" width="7.775" height="3.944"/>
						
							<rect x="117.681" y="414.168" transform="matrix(-0.0556 -0.9985 0.9985 -0.0556 -280.3879 565.8736)" style="fill:#141821;" width="19.509" height="2.755"/>
					</g>
				</g>
			</g>
			<path style="fill:#232A3B;" d="M101.35,301.547l0.532,0.761c0.494,0.707,0.772,1.544,0.799,2.406l0.099,3.15
				c0.023,0.73,0.621,1.309,1.351,1.309h7.761c0.687,0,1.335-0.32,1.752-0.867l3.036-3.977c0,0,0.649,2.875-1.305,5.272
				c-1.356,1.663-3.359,2.665-5.505,2.665h-6.039l-2.499-1.937L101.35,301.547z"/>
		</g>
		<g>
			<path style="fill:#F6A60C;" d="M160.506,365.019c4.275-20.906,2.174-42.214,15.393-59.699c2.429-3.146,6.285-6.193,10.669-8.605
				l5.169-14.315l-13.128-4.74l-37.518,103.908c2.583-0.875,5.119-1.673,7.584-2.325
				C154.906,377.273,158.522,371.493,160.506,365.019z"/>
			<path style="fill:#FEBE2C;" d="M175.9,305.32c-13.219,17.485-11.118,38.793-15.393,59.699c-1.985,6.474-5.6,12.253-11.831,14.224
				c-2.465,0.652-5.001,1.45-7.584,2.325l-2.931,8.118l13.128,4.74l35.28-97.711C182.184,299.127,178.329,302.175,175.9,305.32z"/>
			<polyline style="fill:#D26261;" points="136.009,396.216 136.044,396.119 149.591,401.01 149.556,401.107 			"/>
			<g>
				<path style="fill:#39383C;" d="M193.903,261.144l0.751-7.37l-4.903,7.299C191.051,261.674,192.486,261.599,193.903,261.144z"/>
				<path style="fill:#E2B996;" d="M191.737,282.4l2.165-21.256c-1.417,0.454-2.851,0.53-4.152-0.071l-11.141,16.587L191.737,282.4z
					"/>
			</g>
			<path style="fill:#EE2E6C;" d="M136.056,397.063l-1.241,3.761c-0.866,2.626,0.466,5.46,3.049,6.484l2.922,1.159
				c2.85,1.131,6.079-0.376,7.023-3.278l1.38-4.239c0.954-2.933-0.831-6.037-3.86-6.711l-3.061-0.681
				C139.6,392.964,136.908,394.483,136.056,397.063z"/>
			<polygon style="fill:#868586;" points="150.046,402.263 134.894,396.792 138.014,388.149 153.166,393.62 150.046,402.263 			"/>
			<polygon style="fill:#A3A2A3;" points="138.669,397.983 141.735,389.493 138.014,388.149 134.894,396.792 150.046,402.263 
				150.046,402.263 150.101,402.111 			"/>
		</g>
	</g>
	<g>
		<g>
			<path style="fill:#D9D9D9;" d="M367.144,297.523c3.399,19.844,12.542,37.86,6.906,57.758c-1.059,3.597-3.405,7.597-6.434,11.219
				l0.357,14.355l13.165-0.327l-2.59-104.202c-1.971,1.654-3.928,3.224-5.872,4.641
				C367.872,284.833,366.673,291.152,367.144,297.523z"/>
			<path style="fill:#FEFEFC;" d="M374.05,355.281c5.636-19.898-3.507-37.914-6.906-57.758c-0.471-6.371,0.728-12.691,5.532-16.556
				c1.944-1.418,3.9-2.987,5.872-4.641l-0.202-8.141l-13.165,0.327l2.436,97.988C370.645,362.878,372.991,358.879,374.05,355.281z"
				/>
			<polyline style="fill:#D26261;" points="378.002,261.708 378.004,261.805 364.418,262.142 364.416,262.046 			"/>
			<g>
				<path style="fill:#39383C;" d="M373.347,400.285l1.863,6.737l1.811-8.096C375.672,398.843,374.437,399.401,373.347,400.285z"/>
				<path style="fill:#E2B996;" d="M367.973,380.855l5.374,19.43c1.09-0.885,2.326-1.442,3.675-1.359l4.117-18.398L367.973,380.855z
					"/>
			</g>
			<path style="fill:#EE2E6C;" d="M377.67,260.979l-0.197-3.732c-0.137-2.605-2.279-4.641-4.901-4.657l-2.966-0.019
				c-2.893-0.018-5.216,2.412-5.053,5.286l0.238,4.199c0.165,2.905,2.797,5.023,5.692,4.579l2.924-0.449
				C375.957,265.796,377.804,263.539,377.67,260.979z"/>
			<polygon style="fill:#868586;" points="363.59,261.197 378.785,260.819 379,269.486 363.805,269.864 363.59,261.197 			"/>
			<polygon style="fill:#A3A2A3;" points="375.057,261.065 375.269,269.579 379,269.486 378.785,260.819 363.59,261.197 
				363.59,261.197 363.594,261.35 			"/>
		</g>
		<g>
			<g>
				<path style="fill:#F19663;" d="M409.537,247.502c-0.355,6.693-0.464,13.395-0.464,13.395l-19.384-2.068l-8.461-3.094
					l-2.415-1.325c0,0-2.615-3.831-4.428-3.12c-1.814,0.712-2.5,0.981-2.5,0.981s0.487,0.641,1.036,0.594
					c0.549-0.048,1.379-0.101,1.723,0.187c0.344,0.288,1.883,3.886,2.797,3.858c0.556-0.017,2.418,0.85,3.793,1.532l9.617,4.942
					l15.273,7.838c0.809,0.415,1.668,0.74,2.564,0.906c4.27,0.792,7.534-1.084,8.781-5.591l2.773-8.503L409.537,247.502z"/>
				<path style="fill:#F19663;" d="M412.27,246.883l-8.534-34.156l0,0c2.993,0,5.198-2.755,4.496-5.619l-0.017-0.069
					c-0.928-3.787-4.372-6.455-8.331-6.455h-2.939c-3.925,0-7.107,3.131-7.107,6.993l-1.948,3.169l-0.109,0.11l1.106,0.74
					l-0.253,3.026c-0.18,2.15,1.545,3.993,3.738,3.993h3.649v28.267H412.27z"/>
				<polygon style="fill:#F19663;" points="416.437,246.883 417.984,246.883 416.437,240.574 				"/>
				<path style="fill:#002942;" d="M401.672,212.098c0,0-0.091,0.614-0.731,1.166h2.926c2.769-1.217,4.269-2.612,4.496-5.619
					l-0.148-0.605c-0.928-3.787-4.372-6.455-8.331-6.455h-3.679c0,0-0.539-0.037-1.514,0.362c0,0-1.746,7.976,3.534,8.553
					C398.225,209.501,401.672,208.057,401.672,212.098z"/>
				<path style="fill:#002942;" d="M392.169,207.278c0,0.235-0.193,0.425-0.432,0.425s-0.432-0.19-0.432-0.425
					c0-0.235,0.193-0.425,0.432-0.425S392.169,207.043,392.169,207.278z"/>
				<path style="fill:#002942;" d="M393.396,205.49c0,0-1.327-0.94-2.389-0.888v0.443
					C391.006,205.045,392.599,204.968,393.396,205.49z"/>
				<polygon style="fill:#F47A5E;" points="396.022,218.616 398.824,218.616 396.022,222.856 				"/>
				<path style="fill:#F19663;" d="M402.322,210.926c0,1.455-1.199,2.634-2.677,2.634s-2.677-1.179-2.677-2.634
					c0-1.455,1.198-2.634,2.677-2.634S402.322,209.471,402.322,210.926z"/>
				<path style="fill:#002942;" d="M394.921,231.825"/>
				<path style="fill:#002942;" d="M396.022,226.301"/>
				<path style="fill:#D66C6A;" d="M422.223,293.306l-24.507,38.36c-2.416,3.782-7.215,5.351-11.451,3.745l0,0
					c-4.69-1.778-7.159-6.844-5.632-11.555l13.992-43.168c2.682-8.274,11.89-12.619,20.127-9.497l0,0
					C423.76,274.607,427.36,285.264,422.223,293.306z"/>
				<g>
					<path style="fill:#D66C6A;" d="M380.495,329.826l17.449,65.782l5.13-1.288l-3.754-67.389
						c-0.33-5.927-6.082-10.081-11.928-8.613h0C382.248,319.61,379.155,324.772,380.495,329.826z"/>
					<polygon style="fill:#46B6C4;" points="398.099,395.076 391.048,403.245 404.245,400.063 403.074,393.877 					"/>
					<polygon style="fill:#1A454A;" points="391.547,405.25 404.744,402.069 404.245,400.063 391.048,403.245 					"/>
				</g>
				<path style="fill:#EA7674;" d="M430.568,294.164l-8.305,41.721c-0.819,4.113-4.482,7.08-8.742,7.08l0,0
					c-4.715,0-8.614-3.616-8.892-8.248l-2.549-42.44c-0.489-8.135,6.084-14.996,14.366-14.996l0,0
					C425.504,277.282,432.309,285.418,430.568,294.164z"/>
				<path style="fill:#EA7674;" d="M404.192,335.507l0.351,63.789h4.967l12.478-62.123c1.098-5.464-3.152-10.553-8.813-10.553l0,0
					C408.194,326.62,404.165,330.606,404.192,335.507z"/>
				<path style="fill:#EA7674;" d="M398.815,268.936c0,0-8.587,15.255,3.894,26.385l26.257,5.736l1.831-8.546
					c0,0,2.833-11.33-11.622-23.575H398.815z"/>
				<polygon style="fill:#46B6C4;" points="403.904,398.505 393.884,405.639 409.313,405.639 409.72,398.505 				"/>
				
					<rect x="393.884" y="405.639" transform="matrix(-1 -1.224647e-16 1.224647e-16 -1 803.1963 813.6234)" style="fill:#1A454A;" width="15.429" height="2.344"/>
				<path style="fill:#2E364C;" d="M394.733,273.829l-2.909,15.006l36.793-8.151c0,0-3.64-8.379-10.206-12.866L394.733,273.829z"/>
				<path style="fill:#F19663;" d="M380.799,241.141l-8.517-17.258l-1.831-8.697l-0.142-2.717c0,0,1.91-4.215,0.334-5.349
					c-1.576-1.134-2.173-1.563-2.173-1.563s-0.293,0.747,0.039,1.179c0.333,0.432,0.82,1.096,0.755,1.536
					c-0.065,0.44-2.345,3.634-1.836,4.381c0.31,0.455,0.553,2.468,0.696,3.976l0.853,10.643l1.364,16.896
					c0.072,0.895,0.249,1.783,0.582,2.619c1.586,3.98,4.935,5.705,9.479,4.35l3.431-0.86v-10.915
					C381.986,240.435,380.799,241.141,380.799,241.141z"/>
				<path style="fill:#3FA3B0;" d="M392.579,234.413c-3.268,1.79-6.497,3.641-8.746,4.949v10.915l5.363-1.345L392.579,234.413z"/>
				<path style="fill:#46B6C4;" d="M410.893,233.145l-3.504-5.797l-9.166,10.999l-2.204-7.569c0,0-11.733,10.19-10.844,16.105
					c1.188,7.903,9.558,26.946,9.558,26.946l25.508-4.599c0,0,2.481-21.041,2.481-27.277
					C422.723,235.906,419.932,238.13,410.893,233.145z"/>
				<path style="fill:#F19663;" d="M409.537,247.502c-0.355,6.693-0.464,13.395-0.464,13.395l-19.384-2.068l-8.461-3.094
					l-2.415-1.325c0,0-2.615-3.831-4.428-3.12c-1.814,0.712-2.5,0.981-2.5,0.981s0.487,0.641,1.036,0.594
					c0.549-0.048,1.379-0.101,1.723,0.187c0.344,0.288,1.883,3.886,2.797,3.858c0.556-0.017,2.418,0.85,3.793,1.532l9.617,4.942
					l15.273,7.838c0.809,0.415,1.668,0.74,2.564,0.906c4.27,0.792,7.534-1.084,8.781-5.591l2.773-8.503L409.537,247.502z"/>
				<path style="fill:#43AFBD;" d="M422.936,240.574c-0.707-7.165-9.472-6.324-11.45-6.415c-0.989-0.046-2.294,7.087-2.65,13.785
					l11.67,11.137L422.936,240.574z"/>
				<path style="fill:#002942;" d="M400.941,213.264h2.926c3.478-0.821,3.519-3.446,4.496-5.619"/>
				<path style="fill:#002942;" d="M389.077,203.247c1.631,2.586,5.351,0,5.351,0c5.503,1.103,7.582-2.394,7.582-2.394
					c0.008-0.021,0.017-0.041,0.025-0.062c-0.448-0.055-0.918-0.295-1.39-0.75C395.102,197.713,387.478,200.71,389.077,203.247z"/>
				<path style="fill:none;stroke:#103754;stroke-width:0.0959;stroke-miterlimit:10;" d="M388.709,213.962
					c0,0,2.428,0.199,3.492-1.915"/>
			</g>
			<path style="fill:#002942;" d="M403.776,199.15c0.806-1.639,2.143-2.663,4.162,0.533c0,0,2.612,10.445,11.766,16.715
				s1.63,10.274-1.642,9.453c0,0-6.942,0.649-12.588-16.352l-1.877-4.904C402.921,202.83,402.942,200.846,403.776,199.15z"/>
		</g>
	</g>
</g>
<g id="DESIGNED_BY_FREEPIK">
	<g>
		<g id="XMLID_319_">
			<g id="XMLID_338_">
				<path id="XMLID_346_" style="fill:#FFFFFF;" d="M260.104,465.465c-0.432,0.443-0.803,0.931-1.108,1.453l-0.465-0.241
					c-0.067-0.298-0.349-0.503-0.659-0.466c-0.331,0.039-0.568,0.339-0.529,0.67c0.039,0.331,0.339,0.568,0.67,0.529
					c0.065-0.008,0.127-0.026,0.183-0.052l0.452,0.234c-0.251,0.554-0.433,1.139-0.539,1.744l0.747,0.132
					c0.23-1.306,0.85-2.507,1.792-3.473L260.104,465.465z"/>
				<path id="XMLID_345_" style="fill:#FFFFFF;" d="M265.592,463.163c-0.171,0-0.341,0.006-0.51,0.017l-0.074-0.626
					c0.188-0.149,0.296-0.389,0.266-0.645c-0.046-0.393-0.402-0.674-0.795-0.628c-0.393,0.046-0.674,0.402-0.628,0.795
					c0.03,0.254,0.189,0.461,0.405,0.564l0.073,0.624c-0.714,0.116-1.403,0.332-2.06,0.646l0.327,0.684
					c0.934-0.447,1.942-0.673,2.995-0.673c0.496,0,0.993,0.053,1.475,0.158l0.161-0.741
					C266.692,463.222,266.142,463.163,265.592,463.163z"/>
				<path id="XMLID_344_" style="fill:#FFFFFF;" d="M272.194,465.711c0.331-0.04,0.566-0.341,0.526-0.672
					c-0.04-0.331-0.341-0.566-0.672-0.526c-0.309,0.038-0.535,0.304-0.53,0.609l-0.416,0.363c-0.418-0.43-0.89-0.813-1.408-1.139
					l-0.404,0.641c1.134,0.715,2.021,1.726,2.563,2.925l0.691-0.313c-0.251-0.554-0.568-1.072-0.942-1.545l0.402-0.351
					C272.065,465.716,272.129,465.719,272.194,465.711z"/>
				<path id="XMLID_343_" style="fill:#FFFFFF;" d="M265.044,473.372c-0.386,0.023-0.775,0.035-1.157,0.035
					c-0.88,0-1.733-0.061-2.478-0.179c-0.39-0.062-0.846-0.155-1.27-0.292c1.046,1.861,3.069,3.125,5.388,3.125
					c2.855,0,5.262-1.916,5.95-4.504c-0.682,0.449-1.505,0.825-2.459,1.123C267.839,473.047,266.464,473.286,265.044,473.372z"/>
				<path id="XMLID_339_" style="fill:#FFFFFF;" d="M265.592,464.68c-3.352,0-6.08,2.666-6.08,5.943
					c0,0.426,0.046,0.849,0.137,1.261c0.673,0.483,2.706,0.89,5.348,0.731c2.879-0.173,5.297-0.957,6.672-2.159
					c-0.005-0.195-0.021-0.39-0.045-0.582C271.244,466.913,268.65,464.68,265.592,464.68z M263.432,471.194
					c-1.02,0-1.85-0.83-1.85-1.85c0-1.02,0.83-1.85,1.85-1.85c1.02,0,1.85,0.83,1.85,1.85
					C265.282,470.365,264.452,471.194,263.432,471.194z M268.17,470.286c-0.75,0-1.36-0.61-1.36-1.36s0.61-1.361,1.36-1.361
					c0.75,0,1.361,0.61,1.361,1.361S268.92,470.286,268.17,470.286z"/>
			</g>
			<path id="XMLID_336_" style="fill:#FFFFFF;" d="M281.595,466.547c-0.295-0.116-0.805-0.309-1.382-0.237
				c-0.551,0.069-0.844,0.341-0.844,1.007v0.866h2.228v1.717h-2.228v5.455h-1.932v-5.455h-1.34v-1.717h1.34v-0.888
				c0-1.68,0.896-2.783,2.568-2.783c0.643,0,1.157,0.122,1.59,0.308L281.595,466.547z"/>
			<path id="XMLID_334_" style="fill:#FFFFFF;" d="M286.298,469.879c-0.177-0.03-0.358-0.046-0.526-0.046
				c-0.896,0-1.51,0.548-1.51,1.614v3.908h-1.932v-7.172h1.873v0.785c0.451-0.673,1.14-0.977,2.021-0.977
				c0.414,0,0.848,0.128,1.094,0.337L286.298,469.879z"/>
			<path id="XMLID_331_" style="fill:#FFFFFF;" d="M293.965,471.757c0,0.222-0.015,0.489-0.037,0.651h-5.085
				c0.207,1.036,0.933,1.488,1.843,1.488c0.622,0,1.295-0.252,1.813-0.688l1.132,1.243c-0.814,0.748-1.85,1.088-3.057,1.088
				c-2.198,0-3.723-1.495-3.723-3.753c0-2.258,1.48-3.797,3.627-3.797C292.544,467.99,293.958,469.522,293.965,471.757z
				 M288.851,471.091h3.175c-0.177-0.918-0.733-1.436-1.562-1.436C289.554,469.655,289.021,470.203,288.851,471.091z"/>
			<path id="XMLID_328_" style="fill:#FFFFFF;" d="M301.618,471.757c0,0.222-0.015,0.489-0.037,0.651h-5.085
				c0.207,1.036,0.933,1.488,1.843,1.488c0.622,0,1.295-0.252,1.813-0.688l1.132,1.243c-0.814,0.748-1.85,1.088-3.057,1.088
				c-2.198,0-3.723-1.495-3.723-3.753c0-2.258,1.48-3.797,3.627-3.797C300.197,467.99,301.611,469.522,301.618,471.757z
				 M296.504,471.091h3.175c-0.178-0.918-0.733-1.436-1.562-1.436C297.207,469.655,296.674,470.203,296.504,471.091z"/>
			<path id="XMLID_325_" style="fill:#FFFFFF;" d="M309.964,471.764c0,2.154-1.495,3.775-3.471,3.775
				c-0.962,0-1.643-0.378-2.109-0.933v3.708h-1.924v-10.133h1.887v0.792c0.466-0.585,1.155-0.984,2.139-0.984
				C308.469,467.99,309.964,469.61,309.964,471.764z M304.287,471.764c0,1.132,0.747,1.976,1.843,1.976
				c1.14,0,1.85-0.881,1.85-1.976c0-1.095-0.71-1.976-1.85-1.976C305.035,469.788,304.287,470.632,304.287,471.764z"/>
			<path id="XMLID_322_" style="fill:#FFFFFF;" d="M313.068,465.836c0,0.696-0.54,1.229-1.236,1.229
				c-0.696,0-1.229-0.533-1.229-1.229c0-0.696,0.533-1.243,1.229-1.243C312.527,464.592,313.068,465.14,313.068,465.836z
				 M312.809,475.354h-1.932v-7.172h1.932V475.354z"/>
			<path id="XMLID_320_" style="fill:#FFFFFF;" d="M316.032,470.736l2.701-2.554h2.368l-3.479,3.375l3.501,3.797h-2.376
				l-2.716-2.901v2.901H314.1v-10.658h1.932V470.736z"/>
		</g>
		<g>
			<path style="fill:#FFFFFF;" d="M184.412,475.289v-1.055c-0.527,0.718-1.391,1.23-2.387,1.23c-1.846,0-3.149-1.406-3.149-3.706
				c0-2.256,1.289-3.721,3.149-3.721c0.952,0,1.816,0.469,2.387,1.245v-3.765h1.099v9.77H184.412z M184.412,473.37v-3.208
				c-0.395-0.615-1.245-1.143-2.124-1.143c-1.421,0-2.27,1.172-2.27,2.739c0,1.567,0.85,2.724,2.27,2.724
				C183.168,474.483,184.017,473.986,184.412,473.37z"/>
			<path style="fill:#FFFFFF;" d="M186.932,471.744c0-2.051,1.465-3.706,3.486-3.706c2.139,0,3.398,1.67,3.398,3.794v0.279h-5.727
				c0.088,1.333,1.025,2.446,2.549,2.446c0.805,0,1.626-0.322,2.182-0.894l0.527,0.718c-0.703,0.703-1.655,1.084-2.812,1.084
				C188.44,475.465,186.932,473.956,186.932,471.744z M190.403,468.947c-1.509,0-2.256,1.274-2.314,2.358h4.643
				C192.718,470.25,192.015,468.947,190.403,468.947z"/>
			<path style="fill:#FFFFFF;" d="M194.607,474.351l0.571-0.791c0.469,0.542,1.362,1.011,2.329,1.011c1.084,0,1.67-0.513,1.67-1.216
				c0-1.714-4.38-0.659-4.38-3.281c0-1.098,0.952-2.036,2.636-2.036c1.201,0,2.051,0.454,2.622,1.026l-0.513,0.762
				c-0.424-0.513-1.201-0.894-2.109-0.894c-0.967,0-1.567,0.483-1.567,1.113c0,1.552,4.38,0.527,4.38,3.281
				c0,1.187-0.952,2.138-2.783,2.138C196.306,475.465,195.325,475.113,194.607,474.351z"/>
			<path style="fill:#FFFFFF;" d="M201.477,466.471c0-0.41,0.337-0.747,0.732-0.747c0.41,0,0.747,0.337,0.747,0.747
				c0,0.41-0.337,0.732-0.747,0.732C201.814,467.203,201.477,466.881,201.477,466.471z M201.667,475.289v-7.075h1.099v7.075H201.667
				z"/>
			<path style="fill:#FFFFFF;" d="M204.582,477.105l0.556-0.82c0.586,0.703,1.289,0.967,2.3,0.967c1.172,0,2.27-0.571,2.27-2.124
				v-1.011c-0.513,0.718-1.377,1.26-2.373,1.26c-1.845,0-3.149-1.377-3.149-3.662c0-2.27,1.289-3.677,3.149-3.677
				c0.952,0,1.802,0.469,2.373,1.245v-1.069h1.098v6.87c0,2.344-1.641,3.076-3.369,3.076
				C206.237,478.16,205.417,477.926,204.582,477.105z M209.709,473.253v-3.091c-0.381-0.615-1.23-1.143-2.109-1.143
				c-1.421,0-2.27,1.128-2.27,2.695c0,1.553,0.849,2.695,2.27,2.695C208.478,474.41,209.328,473.868,209.709,473.253z"/>
			<path style="fill:#FFFFFF;" d="M217.413,475.289v-4.629c0-1.245-0.63-1.641-1.582-1.641c-0.865,0-1.685,0.527-2.095,1.099v5.17
				h-1.099v-7.075h1.099v1.025c0.498-0.586,1.465-1.201,2.519-1.201c1.48,0,2.256,0.747,2.256,2.285v4.966H217.413z"/>
			<path style="fill:#FFFFFF;" d="M219.932,471.744c0-2.051,1.465-3.706,3.486-3.706c2.139,0,3.398,1.67,3.398,3.794v0.279h-5.727
				c0.088,1.333,1.025,2.446,2.549,2.446c0.806,0,1.626-0.322,2.183-0.894l0.527,0.718c-0.703,0.703-1.655,1.084-2.812,1.084
				C221.441,475.465,219.932,473.956,219.932,471.744z M223.404,468.947c-1.509,0-2.256,1.274-2.314,2.358h4.643
				C225.718,470.25,225.015,468.947,223.404,468.947z"/>
			<path style="fill:#FFFFFF;" d="M233.35,475.289v-1.055c-0.527,0.718-1.392,1.23-2.388,1.23c-1.846,0-3.149-1.406-3.149-3.706
				c0-2.256,1.289-3.721,3.149-3.721c0.952,0,1.817,0.469,2.388,1.245v-3.765h1.098v9.77H233.35z M233.35,473.37v-3.208
				c-0.396-0.615-1.245-1.143-2.124-1.143c-1.421,0-2.27,1.172-2.27,2.739c0,1.567,0.849,2.724,2.27,2.724
				C232.105,474.483,232.954,473.986,233.35,473.37z"/>
			<path style="fill:#FFFFFF;" d="M239.692,475.289v-9.77h1.098v3.765c0.572-0.776,1.421-1.245,2.388-1.245
				c1.845,0,3.149,1.465,3.149,3.721c0,2.299-1.304,3.706-3.149,3.706c-0.996,0-1.86-0.513-2.388-1.23v1.055H239.692z
				 M242.9,474.483c1.436,0,2.285-1.157,2.285-2.724c0-1.568-0.85-2.739-2.285-2.739c-0.864,0-1.728,0.527-2.109,1.143v3.208
				C241.171,473.986,242.036,474.483,242.9,474.483z"/>
			<path style="fill:#FFFFFF;" d="M247.528,477.061c0.161,0.073,0.425,0.117,0.601,0.117c0.483,0,0.805-0.161,1.055-0.747
				l0.469-1.069l-2.959-7.148h1.187l2.358,5.8l2.344-5.8h1.201l-3.545,8.51c-0.425,1.025-1.143,1.421-2.08,1.435
				c-0.234,0-0.601-0.044-0.806-0.103L247.528,477.061z"/>
		</g>
	</g>
</g>
</svg>
